<svg width="120" height="30" viewBox="0 0 120 30" fill="none" xmlns="http://www.w3.org/2000/svg">
<path d="M41.7565 18.9158C41.3471 18.4481 40.9174 17.9852 40.4673 17.5276C40.017 17.0699 39.5771 16.6072 39.1474 16.1395V19.3124C39.1474 19.882 39.1626 20.5837 39.1933 21.4176C39.224 22.2515 39.2598 23.1261 39.3008 24.0414C39.3417 24.9567 39.3878 25.872 39.4389 26.7872C39.4901 27.7025 39.5361 28.5364 39.5771 29.289C39.2905 29.2076 39.0091 29.1415 38.7329 29.0906C38.4566 29.0399 38.1241 29.0144 37.7354 29.0144C37.3874 29.0144 37.0497 29.0399 36.7224 29.0906C36.3949 29.1415 36.0367 29.2076 35.648 29.289C35.7298 28.4144 35.8066 27.489 35.8782 26.5127C35.9499 25.5364 36.0113 24.5499 36.0624 23.5532C36.1136 22.5565 36.1544 21.5701 36.1851 20.5938C36.2158 19.6175 36.2313 18.6921 36.2313 17.8175C36.2313 16.0275 36.2158 14.2988 36.1851 12.6309C36.1544 10.963 36.088 9.23422 35.9857 7.44427C36.4154 7.52569 36.8503 7.59177 37.2902 7.6425C37.7303 7.69341 38.1651 7.71886 38.5948 7.71886C39.0041 7.71886 39.4031 7.69341 39.792 7.6425C40.1807 7.59177 40.5695 7.52569 40.9584 7.44427C41.5313 8.1969 42.1505 8.96974 42.8154 9.76299C43.4806 10.5562 44.1404 11.319 44.7954 12.0512C45.4502 12.7834 46.0743 13.475 46.6678 14.1258C47.2612 14.7766 47.7831 15.3462 48.2333 15.8344C48.6631 16.2819 49.057 16.6987 49.415 17.0852C49.7732 17.4718 50.121 17.853 50.4587 18.2293C50.7963 18.6057 51.1391 18.9869 51.4871 19.3735C51.8349 19.76 52.2134 20.1667 52.6228 20.5938C52.6228 19.6785 52.6074 18.7887 52.5767 17.9242C52.546 17.0598 52.5204 16.17 52.5 15.2547C52.4795 14.5021 52.459 13.7953 52.4386 13.1342C52.4181 12.4733 52.3925 11.8275 52.3618 11.1969C52.3311 10.5663 52.3004 9.94605 52.2697 9.33586C52.239 8.72567 52.2033 8.09508 52.1624 7.44427C52.5716 7.54591 52.9298 7.61722 53.2367 7.65784C53.5437 7.69846 53.8813 7.71886 54.2497 7.71886C54.5975 7.71886 54.9146 7.69846 55.2013 7.65784C55.4877 7.61722 55.7845 7.54591 56.0914 7.44427C56.0504 8.21712 55.9993 8.99014 55.938 9.76299C55.8766 10.5358 55.8254 11.3089 55.7845 12.0817C55.7026 14.1767 55.6412 16.231 55.6003 18.2446C55.5593 20.2582 55.5389 22.3125 55.5389 24.4075C55.5389 25.2212 55.5491 26.0346 55.5696 26.8483C55.59 27.6619 55.6206 28.4754 55.6617 29.289C55.3342 29.2076 54.9453 29.1415 54.4953 29.0906C54.045 29.0399 53.5947 29.0144 53.1446 29.0144C52.6739 29.0144 52.2441 29.0449 51.8554 29.106C51.4665 29.167 51.1084 29.228 50.7811 29.289C50.0852 28.4552 49.4254 27.672 48.8011 26.9398C48.177 26.2076 47.5631 25.5008 46.9594 24.8193C46.3558 24.138 45.7673 23.4718 45.1944 22.821C44.6214 22.1702 44.0382 21.5091 43.4448 20.8379L41.7565 18.9158Z" fill="url(#paint0_linear_298_45)"/>
<path d="M59.9898 19.5259C59.9898 18.1225 59.9949 16.9478 60.0051 16.002C60.0154 15.0562 59.9795 14.1563 59.8977 13.302C60.4911 13.363 61.0898 13.424 61.6933 13.4851C62.2971 13.5461 62.8955 13.5766 63.4891 13.5766C64.0211 13.5766 64.5429 13.5511 65.0546 13.5002C65.5661 13.4495 66.0879 13.3834 66.6201 13.302C66.579 13.9122 66.5433 14.4818 66.5126 15.0105C66.4819 15.5393 66.4563 16.119 66.4359 16.7496C66.4154 17.3802 66.4001 18.092 66.3898 18.8852C66.3796 19.6785 66.3745 20.6548 66.3745 21.8141C66.3745 22.3023 66.3847 22.7803 66.4052 23.2481C66.4256 23.7158 66.487 24.1227 66.5894 24.4684C66.6917 24.8142 66.8606 25.0938 67.0958 25.3074C67.3312 25.5209 67.6637 25.6278 68.0935 25.6278C68.5232 25.6278 68.8558 25.4957 69.091 25.2312C69.3264 24.9667 69.4951 24.6311 69.5976 24.2244C69.6998 23.8176 69.7612 23.3651 69.7818 22.8666C69.8021 22.3684 69.8124 21.8752 69.8124 21.387C69.8124 20.0446 69.8074 18.6666 69.797 17.2529C69.7868 15.8393 69.7305 14.5224 69.6283 13.302C70.2217 13.3834 70.7998 13.4495 71.3625 13.5002C71.9254 13.5511 72.5033 13.5766 73.0969 13.5766C74.1814 13.5766 75.2763 13.4851 76.3813 13.302C76.3403 13.6071 76.2994 13.9987 76.2586 14.4765C76.2175 14.9546 76.1868 15.4886 76.1665 16.0784C76.146 16.6681 76.1307 17.2834 76.1203 17.9241C76.1102 18.5648 76.1051 19.2107 76.1051 19.8615V22.2108C76.1051 23.7972 76.1203 25.1447 76.151 26.2532C76.1817 27.3618 76.2482 28.3737 76.3507 29.2889C75.8799 29.2279 75.3428 29.1669 74.739 29.1059C74.1355 29.0449 73.5573 29.0144 73.0048 29.0144C72.4931 29.0144 71.9764 29.0449 71.4546 29.1059C70.9328 29.1669 70.416 29.2279 69.9045 29.2889C69.9863 28.4957 70.0477 27.7126 70.0887 26.9397C69.6793 27.3668 69.2957 27.733 68.9375 28.0381C68.5795 28.3431 68.2112 28.5923 67.8325 28.7854C67.454 28.9788 67.0395 29.1109 66.5894 29.1821C66.1391 29.2534 65.6071 29.2889 64.9932 29.2889C63.3151 29.2889 62.0566 28.8414 61.2176 27.9465C60.3785 27.0516 59.9591 25.7804 59.9591 24.1328C59.9591 23.8074 59.9591 23.4515 59.9591 23.065C59.9591 22.6583 59.9642 22.2463 59.9744 21.8293C59.9847 21.4125 59.9898 21.0108 59.9898 20.6243C59.9898 20.2175 59.9898 19.8514 59.9898 19.5259Z" fill="url(#paint1_linear_298_45)"/>
<path d="M86.0199 21.7836C86.0199 22.6175 86.0403 23.3853 86.0813 24.087C86.1222 24.7887 86.2092 25.3888 86.3421 25.8871C86.4753 26.3855 86.6798 26.7771 86.956 27.0618C87.2323 27.3465 87.5956 27.4889 88.0458 27.4889C88.5778 27.4889 88.9871 27.2855 89.2737 26.8787C89.5601 26.472 89.7699 25.9634 89.9029 25.3533C90.036 24.7431 90.1126 24.0719 90.1332 23.3396C90.1535 22.6074 90.1638 21.9261 90.1638 21.2955C90.1638 20.1565 90.1126 19.2413 90.0104 18.5497C89.9079 17.858 89.7699 17.3192 89.5959 16.9326C89.4221 16.5461 89.2123 16.292 88.9667 16.1699C88.7211 16.0479 88.4551 15.9869 88.1686 15.9869C87.7184 15.9869 87.3551 16.1241 87.0788 16.3986C86.8026 16.6732 86.5877 17.0648 86.4342 17.5733C86.2807 18.0819 86.1734 18.6921 86.112 19.4039C86.0506 20.1157 86.0199 20.909 86.0199 21.7836ZM96.9783 20.8073C96.9783 22.0073 96.8043 23.1362 96.4565 24.1939C96.1085 25.2516 95.597 26.1719 94.9217 26.9549C94.2464 27.738 93.4125 28.3432 92.4199 28.7703C91.4275 29.1974 90.2968 29.411 89.0281 29.411C88.3731 29.411 87.7899 29.3754 87.2784 29.3041C86.7668 29.233 86.3064 29.1009 85.8971 28.9075C85.4877 28.7143 85.1143 28.4703 84.7766 28.1753C84.439 27.8805 84.1168 27.5398 83.8098 27.1533C83.4004 27.5194 83.027 27.8651 82.6893 28.1906C82.3517 28.5161 81.9988 28.8822 81.6304 29.289C81.4257 29.2686 81.2365 29.2431 81.0625 29.2126C80.8886 29.1821 80.7095 29.1669 80.5254 29.1669C80.1774 29.1669 79.8501 29.2075 79.5431 29.289C79.6454 27.316 79.7273 25.3583 79.7887 23.4158C79.8501 21.4735 79.8808 19.5158 79.8808 17.5428C79.8808 16.831 79.8704 16.0073 79.8501 15.0716C79.8295 14.1359 79.8039 13.1596 79.7732 12.1427C79.7425 11.1258 79.7118 10.0935 79.6812 9.04588C79.6505 7.99845 79.6147 7.01709 79.5738 6.10181C80.1263 6.20345 80.6789 6.27475 81.2314 6.31537C81.7839 6.35599 82.3466 6.37639 82.9196 6.37639C83.4925 6.37639 84.1064 6.35094 84.7614 6.30003C85.4162 6.2493 86.0096 6.18322 86.5417 6.10181C86.4803 6.46792 86.4291 6.88999 86.3883 7.36786C86.3472 7.8459 86.3165 8.42558 86.2962 9.10689C86.2757 9.78839 86.2551 10.5816 86.2348 11.4866C86.2143 12.3918 86.1937 13.4546 86.1734 14.675C86.6235 14.3495 87.1506 14.0241 87.7542 13.6987C88.3579 13.3732 89.1509 13.2105 90.1332 13.2105C91.0744 13.2105 91.9595 13.3885 92.7882 13.7443C93.617 14.1003 94.3436 14.6089 94.9677 15.2698C95.5919 15.9309 96.083 16.7292 96.441 17.6649C96.7992 18.6006 96.9783 19.648 96.9783 20.8073Z" fill="url(#paint2_linear_298_45)"/>
<path d="M99.7716 8.78662C99.7716 8.35949 99.8586 7.95275 100.032 7.56624C100.206 7.17973 100.442 6.83907 100.738 6.54409C101.035 6.24928 101.378 6.01532 101.767 5.84237C102.155 5.6696 102.575 5.58313 103.025 5.58313C103.455 5.58313 103.864 5.6696 104.253 5.84237C104.642 6.01532 104.985 6.24423 105.281 6.52892C105.578 6.81362 105.814 7.15428 105.987 7.5509C106.161 7.94752 106.248 8.35949 106.248 8.78662C106.248 9.21375 106.161 9.62554 105.987 10.0222C105.814 10.4188 105.578 10.7596 105.281 11.0443C104.985 11.329 104.642 11.5579 104.253 11.7307C103.864 11.9036 103.455 11.9901 103.025 11.9901C102.575 11.9901 102.155 11.9036 101.767 11.7307C101.378 11.5579 101.035 11.324 100.738 11.029C100.442 10.7342 100.206 10.3935 100.032 10.007C99.8586 9.62049 99.7716 9.21375 99.7716 8.78662ZM99.8023 20.8073C99.8023 19.648 99.7972 18.7123 99.7868 18.0005C99.7767 17.2886 99.7612 16.6784 99.7409 16.1699C99.7203 15.6614 99.6947 15.1987 99.664 14.7816C99.6333 14.3648 99.5976 13.8716 99.5567 13.302C100.13 13.4037 100.698 13.475 101.26 13.5156C101.823 13.5562 102.401 13.5766 102.995 13.5766C104.181 13.5766 105.338 13.4851 106.463 13.302C106.34 14.9699 106.264 16.5005 106.233 17.8936C106.202 19.2869 106.187 20.4717 106.187 21.448V23.0955C106.187 23.5633 106.192 24.0718 106.202 24.621C106.213 25.1702 106.223 25.7194 106.233 26.2685C106.243 26.8177 106.264 27.3515 106.294 27.8702C106.325 28.3888 106.351 28.8618 106.371 29.2889C105.778 29.2075 105.179 29.1415 104.575 29.0906C103.972 29.0398 103.373 29.0144 102.78 29.0144C102.248 29.0144 101.705 29.0449 101.153 29.1059C100.6 29.1669 100.058 29.2279 99.526 29.2889C99.5874 28.5567 99.6384 27.9261 99.6795 27.3974C99.7204 26.8686 99.746 26.3142 99.7561 25.7345C99.7665 25.1548 99.7767 24.4836 99.7868 23.7209C99.7972 22.9582 99.8023 21.9871 99.8023 20.8073Z" fill="url(#paint3_linear_298_45)"/>
<path d="M116.654 25.1092C116.654 26.35 117.268 26.9703 118.496 26.9703C118.762 26.9703 119.018 26.9347 119.263 26.8634C119.509 26.7923 119.755 26.7058 120 26.6042C119.918 26.9093 119.877 27.2245 119.877 27.55C119.877 27.7736 119.888 27.9617 119.908 28.1143C119.928 28.2668 119.959 28.4246 120 28.5873C119.243 28.8517 118.47 29.0601 117.683 29.2126C116.895 29.3652 116.102 29.4415 115.304 29.4415C113.523 29.4415 112.229 29.0245 111.421 28.1907C110.612 27.3568 110.208 26.1364 110.208 24.5295C110.208 23.7973 110.229 23.0447 110.27 22.2718C110.31 21.499 110.331 20.7362 110.331 19.9836V15.9259C109.922 15.9259 109.517 15.936 109.118 15.9564C108.719 15.9768 108.346 16.0073 107.998 16.0479C108.018 15.9055 108.044 15.7275 108.075 15.5139C108.105 15.3003 108.121 15.092 108.121 14.8885C108.121 14.7055 108.111 14.502 108.09 14.2784C108.07 14.0547 108.039 13.8613 107.998 13.6987C108.264 13.7393 108.632 13.7698 109.103 13.7902C109.574 13.8106 109.983 13.8207 110.331 13.8207V9.85449C111.395 9.42736 112.444 8.94932 113.477 8.42055C114.511 7.89178 115.519 7.30181 116.501 6.651L117.053 7.01712C116.971 7.48487 116.905 8.04432 116.854 8.69513C116.803 9.34594 116.762 9.99693 116.731 10.6477C116.7 11.2985 116.68 11.9087 116.67 12.4783C116.659 13.0479 116.654 13.4952 116.654 13.8207C117.166 13.8207 117.652 13.8106 118.112 13.7902C118.573 13.7698 119.008 13.7393 119.417 13.6987C119.335 14.0444 119.294 14.441 119.294 14.8885C119.294 15.092 119.309 15.2953 119.34 15.4987C119.371 15.7022 119.396 15.8852 119.417 16.0479C118.946 16.0073 118.486 15.9768 118.036 15.9564C117.585 15.936 117.125 15.9259 116.654 15.9259V25.1092Z" fill="url(#paint4_linear_298_45)"/>
<path d="M15.9125 0.0198747C15.5847 0.0462 15.239 0.0903086 14.8757 0.15185C14.5123 0.213567 14.0292 0.332466 13.4267 0.508723C12.824 0.684806 12.2036 0.918246 11.5655 1.20904C10.9274 1.49967 10.3292 1.82115 9.77091 2.17349C9.21259 2.52583 8.64095 2.94425 8.05598 3.42874C7.471 3.91322 6.94374 4.40643 6.474 4.90853C6.00427 5.41063 5.57015 5.93033 5.17128 6.46765C4.77241 7.00514 4.4579 7.46313 4.22742 7.84179C3.99694 8.22063 3.80207 8.56426 3.64245 8.87249C3.48301 9.18072 3.31006 9.55067 3.12395 9.98234C2.93785 10.414 2.76508 10.872 2.60563 11.3565C2.44601 11.841 2.30429 12.3696 2.1801 12.9421C2.05609 13.5146 1.96751 14.0563 1.91436 14.5673C1.86104 15.0781 1.83456 15.5582 1.83456 16.0075C1.83456 16.4568 1.86104 16.9237 1.91436 17.408C1.96751 17.8925 2.05609 18.3902 2.1801 18.9012C2.30429 19.412 2.4504 19.87 2.61879 20.2753C2.78718 20.6805 2.87137 20.9051 2.87137 20.9492C2.87137 20.9931 2.48145 21.5437 1.7016 22.6007C0.921751 23.6579 0.469733 24.3096 0.345722 24.5563C0.221536 24.8029 0.132957 25.0407 0.0798094 25.2698C0.0266618 25.4987 0 25.7454 0 26.0097C0 26.274 0.0133316 26.481 0.0398177 26.6307C0.0664792 26.7805 0.141728 27.0007 0.265914 27.2913C0.389925 27.5821 0.50078 27.7934 0.598305 27.9255C0.695655 28.0577 0.810896 28.1898 0.943852 28.322C1.07681 28.4541 1.2673 28.5994 1.5155 28.758C1.76369 28.9165 2.03399 29.0399 2.32639 29.128C2.61879 29.216 2.94241 29.2601 3.2969 29.2601C3.6514 29.2601 3.97484 29.216 4.26724 29.128C4.55982 29.0399 4.84327 28.9034 5.11813 28.7184C5.39281 28.5335 5.61435 28.344 5.78274 28.1503C5.95112 27.9564 6.88164 26.6924 8.57447 24.358C10.2671 22.0238 11.0957 20.8346 11.0603 20.7905C11.0249 20.7466 10.4576 20.3369 9.35871 19.5618C8.2598 18.7867 7.62168 18.3154 7.44452 18.1481C7.26718 17.9807 7.12107 17.8088 7.00583 17.6327C6.89059 17.4564 6.79745 17.2715 6.72659 17.0778C6.65572 16.8839 6.60696 16.7033 6.5803 16.5359C6.55381 16.3686 6.54487 16.1792 6.55381 15.9679C6.56258 15.7565 6.60258 15.5317 6.67344 15.2939C6.7443 15.0561 6.83744 14.8403 6.95268 14.6466C7.06775 14.4528 8.20665 12.8717 10.369 9.90318C12.5316 6.93453 13.7058 5.36216 13.8919 5.18608C14.078 5.00982 14.2774 4.8646 14.4902 4.75006C14.7028 4.63552 14.9466 4.54747 15.2213 4.48576C15.4959 4.42404 15.7885 4.40643 16.0986 4.43293C16.4089 4.45943 16.6305 4.49465 16.7634 4.53858C16.8962 4.58269 17.0691 4.66637 17.2817 4.78963C17.4945 4.91306 18.1547 5.37541 19.2626 6.17702C19.8165 6.57783 20.3704 6.97864 20.9242 7.37945C21.1369 7.08882 21.3497 6.79802 21.5623 6.5074C21.9878 5.92598 22.2581 5.53842 22.3732 5.34455C22.4884 5.15086 22.5816 4.95264 22.6524 4.75006C22.7233 4.54747 22.7721 4.35814 22.7987 4.18188C22.8252 4.0058 22.8252 3.75022 22.7987 3.41549C22.7721 3.08076 22.6968 2.75927 22.5726 2.45104C22.4486 2.14263 22.2802 1.86073 22.0675 1.60532C21.8549 1.34991 21.6554 1.15604 21.4693 1.02407C21.2832 0.89192 21.0484 0.768488 20.7647 0.653947C20.4811 0.53958 20.2241 0.468974 19.9937 0.442649C19.7634 0.416149 19.5462 0.372216 19.3424 0.3105C19.1384 0.248784 18.8904 0.1916 18.5978 0.138775C18.3054 0.0859506 17.8667 0.0462 17.2817 0.0198747C16.6969 -0.0066249 16.2405 -0.0066249 15.9125 0.0198747ZM29.4853 0.759772C29.255 0.803706 29.0201 0.878671 28.7809 0.984321C28.5415 1.08997 28.3333 1.20905 28.1559 1.34102C27.9788 1.47317 27.837 1.5966 27.7306 1.71114C27.6243 1.82551 26.7557 3.00161 25.1251 5.2389C23.4944 7.47638 22.7233 8.63905 22.8119 8.72709C22.9006 8.81531 23.5475 9.28654 24.7529 10.141C25.9581 10.9954 26.6494 11.5151 26.8267 11.7001C27.0039 11.8851 27.1502 12.0833 27.2654 12.2946C27.3805 12.5061 27.4692 12.7482 27.5311 13.0214C27.5932 13.2944 27.6153 13.5631 27.5976 13.8274C27.5799 14.0917 27.5224 14.3558 27.4248 14.6201C27.3273 14.8844 26.1709 16.5448 23.9552 19.6013C21.7396 22.658 20.5476 24.2743 20.3792 24.4506C20.2108 24.6267 20.007 24.7853 19.7677 24.9262C19.5285 25.0672 19.298 25.1685 19.0765 25.2301C18.8549 25.2918 18.6466 25.327 18.4517 25.3359C18.2566 25.3446 18.0882 25.3403 17.9465 25.3226C17.8046 25.305 17.6362 25.2653 17.4413 25.2037C17.2463 25.142 17.0646 25.0627 16.8962 24.9659C16.7278 24.869 16.0144 24.3669 14.7559 23.4597C14.1267 23.006 13.4976 22.5524 12.8684 22.0986C12.5625 22.5215 12.2567 22.9443 11.951 23.3671C11.3396 24.2128 10.9938 24.7193 10.9142 24.8866C10.8344 25.054 10.7635 25.2609 10.7014 25.5076C10.6393 25.7543 10.6129 26.0449 10.6216 26.3797C10.6306 26.7144 10.6748 27.0096 10.7546 27.265C10.8344 27.5204 10.9628 27.7847 11.1401 28.0577C11.3173 28.3307 11.5344 28.573 11.7916 28.7845C12.0485 28.9958 12.3055 29.1588 12.5625 29.2734C12.8196 29.3879 13.236 29.5155 13.8122 29.6566C14.3883 29.7974 14.8624 29.89 15.2346 29.9339C15.6068 29.978 16.0188 30 16.4708 30C16.9228 30 17.3438 29.978 17.7337 29.9339C18.1237 29.89 18.4517 29.8415 18.7176 29.7885C18.9833 29.7357 19.2492 29.6742 19.5152 29.6036C19.7811 29.5331 20.1356 29.4186 20.5786 29.2601C21.0217 29.1015 21.3895 28.9562 21.6819 28.8241C21.9745 28.6919 22.3555 28.4937 22.8252 28.2294C23.2949 27.9653 23.7026 27.7142 24.0483 27.4763C24.3939 27.2385 24.7352 26.9831 25.072 26.71C25.4086 26.4368 25.7941 26.089 26.2284 25.6661C26.6627 25.2433 26.9728 24.9262 27.1589 24.7149C27.345 24.5034 27.5755 24.2215 27.8502 23.8692C28.1251 23.5168 28.3908 23.1469 28.6479 22.7593C28.9049 22.3718 29.1442 21.9797 29.3657 21.5834C29.5872 21.187 29.8354 20.6716 30.1101 20.0374C30.385 19.4033 30.6153 18.769 30.8014 18.1348C30.9875 17.5006 31.1294 16.8839 31.2269 16.2849C31.3243 15.686 31.382 15.0342 31.3997 14.3295C31.4174 13.6248 31.4041 13.061 31.3599 12.6382C31.3155 12.2154 31.2401 11.7662 31.1338 11.2904C31.0275 10.8148 30.8856 10.3347 30.7084 9.85018C30.5311 9.36569 30.8679 8.54212 31.7187 7.37945C32.5695 6.2166 33.0392 5.53842 33.1278 5.34455C33.2165 5.15086 33.2874 4.93939 33.3405 4.71048C33.3937 4.4814 33.4203 4.23471 33.4203 3.97041C33.4203 3.70629 33.4026 3.48592 33.3672 3.30984C33.3318 3.13358 33.2607 2.92228 33.1544 2.67559C33.0481 2.4289 32.9373 2.22632 32.822 2.06784C32.7068 1.90919 32.5517 1.74183 32.3569 1.56574C32.1618 1.38949 31.9536 1.23973 31.7321 1.11647C31.5104 0.993211 31.2711 0.89628 31.0141 0.825847C30.7572 0.755239 30.4957 0.715663 30.2299 0.706946C29.964 0.698055 29.7158 0.715664 29.4853 0.759772ZM15.846 8.04002C15.6866 8.07523 15.527 8.13695 15.3675 8.22499C15.2079 8.31321 15.0308 8.46733 14.8357 8.68752C14.6408 8.90771 13.8477 9.97798 12.4562 11.8983C11.0649 13.8185 10.3292 14.8844 10.2494 15.0957C10.1696 15.3072 10.1298 15.5274 10.1298 15.7565C10.1298 15.9855 10.1652 16.1968 10.2361 16.3907C10.3071 16.5844 10.4134 16.765 10.5551 16.9324C10.697 17.0997 11.7028 17.8573 13.5728 19.2051C15.4428 20.5527 16.5196 21.3148 16.8032 21.4908C17.0869 21.6671 17.2951 21.7727 17.428 21.808C17.561 21.8432 17.725 21.8608 17.9199 21.8608C18.1149 21.8608 18.3231 21.8212 18.5446 21.7419C18.7662 21.6626 18.9523 21.5613 19.103 21.438C19.2536 21.3148 20.0557 20.2577 21.5092 18.267C22.9626 16.2762 23.7426 15.175 23.8489 14.9637C23.9552 14.7523 24.0173 14.5056 24.035 14.2237C24.0527 13.9419 24.026 13.6996 23.9552 13.497C23.8843 13.2944 23.8222 13.1536 23.7691 13.0742C23.7159 12.9949 23.6184 12.8893 23.4767 12.7571C23.3348 12.625 22.2625 11.841 20.2596 10.4051C18.2566 8.96942 17.171 8.21627 17.0027 8.14584C16.8343 8.07523 16.6392 8.0313 16.4177 8.01369C16.1961 7.99608 16.0057 8.0048 15.846 8.04002Z" fill="url(#paint5_linear_298_45)"/>
<defs>
<linearGradient id="paint0_linear_298_45" x1="-1.245e-07" y1="15" x2="33.4373" y2="15" gradientUnits="userSpaceOnUse">
<stop stop-color="#FF9502"/>
<stop offset="1" stop-color="#FF6B00"/>
</linearGradient>
<linearGradient id="paint1_linear_298_45" x1="-1.245e-07" y1="15" x2="33.4373" y2="15" gradientUnits="userSpaceOnUse">
<stop stop-color="#FF9502"/>
<stop offset="1" stop-color="#FF6B00"/>
</linearGradient>
<linearGradient id="paint2_linear_298_45" x1="-1.245e-07" y1="15" x2="33.4373" y2="15" gradientUnits="userSpaceOnUse">
<stop stop-color="#FF9502"/>
<stop offset="1" stop-color="#FF6B00"/>
</linearGradient>
<linearGradient id="paint3_linear_298_45" x1="-1.245e-07" y1="15" x2="33.4373" y2="15" gradientUnits="userSpaceOnUse">
<stop stop-color="#FF9502"/>
<stop offset="1" stop-color="#FF6B00"/>
</linearGradient>
<linearGradient id="paint4_linear_298_45" x1="-1.245e-07" y1="15" x2="33.4373" y2="15" gradientUnits="userSpaceOnUse">
<stop stop-color="#FF9502"/>
<stop offset="1" stop-color="#FF6B00"/>
</linearGradient>
<linearGradient id="paint5_linear_298_45" x1="-1.245e-07" y1="15" x2="33.4373" y2="15" gradientUnits="userSpaceOnUse">
<stop stop-color="#FF9502"/>
<stop offset="1" stop-color="#FF6B00"/>
</linearGradient>
</defs>
</svg>
