<svg width="2000" height="333" viewBox="0 0 2000 333" fill="none" xmlns="http://www.w3.org/2000/svg">
<path d="M268.723 119.717C265.674 139.628 242.165 145.955 229.495 130.295C202.977 97.5215 188.852 54.6967 193.354 9.43058C193.896 3.98317 198.595 0 204.07 0H225.14C235.22 0 244.832 4.85236 249.739 13.6568C263.057 37.5514 270.645 65.0763 270.645 94.3736C270.645 102.99 269.989 111.454 268.723 119.717Z" fill="#F25749"/>
<path d="M221.012 166.535C232.753 178.031 236.535 196.523 225.242 208.46C218.755 215.317 211.689 221.621 204.123 227.295C189.973 237.905 170.798 230.227 161.916 214.933C132.319 163.971 83.8872 124.735 25.117 107.6C10.798 103.426 0 90.8785 0 75.9633V40.949C0 18.3335 18.3335 0 40.949 0H157.099C160.507 0 163.131 2.99947 162.793 6.39107C156.644 68.2191 179.821 126.204 221.012 166.535Z" fill="#F25749"/>
<path d="M306.339 215.581C321.199 219.653 332.711 232.42 332.711 247.828V291.762C332.711 314.377 314.377 332.711 291.762 332.711H224.283C207.29 332.711 193.737 318.853 191.549 302.001C191.411 300.94 191.266 299.881 191.114 298.824C188.988 284.055 196.094 269.24 208.747 261.332C225.356 250.95 240.305 238.159 253.104 223.447C263.4 211.613 280.24 207.085 295.092 212.133C298.789 213.389 302.539 214.54 306.339 215.581Z" fill="#F25749"/>
<path d="M332.711 161.871C332.711 176.581 319.209 187.857 305.273 183.148C293.124 179.043 288.655 165.248 292.472 153.006C298.246 134.487 301.357 114.794 301.357 94.3736C301.357 65.3292 295.063 37.7548 283.766 12.9396C281.066 7.0095 285.246 0 291.762 0C314.377 0 332.711 18.3335 332.711 40.949V161.871Z" fill="#F25749"/>
<path d="M104.611 260.408C107.386 260.408 110.145 260.34 112.886 260.205C131.426 259.295 141.27 239.438 131.35 223.749C108.936 188.303 75.7698 160.009 35.921 143.837C17.9312 136.536 0 151.166 0 170.58V208.694C0 217.944 4.07464 226.843 11.7374 232.023C38.2449 249.943 70.2058 260.408 104.611 260.408Z" fill="#F25749"/>
<path d="M138.618 332.711C151.971 332.711 162.948 321.655 161.387 308.393C159.791 294.828 146.116 287.219 132.595 289.145C123.454 290.446 114.111 291.12 104.611 291.12C77.1195 291.12 50.9451 285.481 27.1809 275.298C14.9074 270.038 0 278.409 0 291.762C0 314.377 18.3335 332.711 40.949 332.711H138.618Z" fill="#F25749"/>
<path d="M720.42 0H732.348C738.159 0 743.052 1.9882 747.028 5.96461C751.309 9.94102 753.45 14.8351 753.45 20.6467V300.524C753.45 306.336 751.309 311.23 747.028 315.206C743.052 319.183 738.159 321.171 732.348 321.171H720.42C714.304 321.171 709.41 319.03 705.74 314.748L651.149 260.607V260.149H650.69C647.02 256.478 645.186 251.584 645.186 245.466V239.043C644.574 232.008 641.668 226.043 636.469 221.149C631.576 215.949 625.612 213.349 618.578 213.349H619.954H612.156C606.345 213.349 601.451 211.361 597.476 207.385C593.5 203.408 591.512 198.361 591.512 192.244V187.197C591.206 180.162 588.759 174.35 584.172 169.762C579.584 164.868 573.774 162.115 566.739 161.503H564.446C558.635 161.503 553.589 159.515 549.307 155.539C545.331 151.256 543.343 146.209 543.343 140.398V128.927C543.343 128.315 543.496 127.857 543.802 127.551C542.273 122.351 539.215 117.916 534.627 114.245C530.345 110.575 525.146 108.586 519.03 108.281H510.772C504.961 108.281 499.762 105.986 495.175 101.398L488.752 94.9749V300.524C488.752 306.336 486.764 311.23 482.788 315.206C478.813 319.183 473.919 321.171 468.108 321.171H456.181C450.37 321.171 445.324 319.183 441.042 315.206C437.066 311.23 435.078 306.336 435.078 300.524V20.6467C435.078 14.8351 437.066 9.94102 441.042 5.96461C445.324 1.9882 450.37 0 456.181 0H468.108C471.167 0 473.919 0.611756 476.366 1.83527C478.813 3.05878 481.106 4.58816 483.247 6.42342L537.38 60.5637V61.0225H537.838C541.508 65.3048 543.343 70.1988 543.343 75.7046V82.128C543.955 89.1632 546.707 95.2807 551.601 100.481C556.8 105.375 562.917 107.822 569.951 107.822H568.574H576.373C582.184 107.822 587.077 109.81 591.053 113.786C595.029 117.763 597.017 122.81 597.017 128.927V134.433C597.629 141.468 600.381 147.433 605.274 152.327C610.168 157.221 616.131 159.668 623.166 159.668H624.083C629.894 159.668 634.787 161.809 638.763 166.091C643.045 170.068 645.186 174.962 645.186 180.773V192.244C645.186 192.55 645.033 192.856 644.727 193.161C644.727 193.161 644.727 193.314 644.727 193.62C646.256 198.82 649.161 203.255 653.443 206.926C658.03 210.596 663.23 212.585 669.04 212.89H677.757C683.873 212.89 688.92 215.185 692.895 219.773H693.354L699.777 226.196V20.6467C699.777 14.8351 701.765 9.94102 705.74 5.96461C709.716 1.9882 714.61 0 720.42 0Z" fill="#F25749"/>
<path d="M1121.28 20.6467V249.137C1121.28 254.643 1119.44 259.384 1115.77 263.36C1112.1 267.031 1107.51 269.172 1102.01 269.784H1102.47H1100.63C1092.68 270.09 1086.41 271.925 1081.82 275.289C1077.54 278.654 1074.33 282.325 1072.19 286.301C1069.74 290.583 1068.37 295.63 1068.06 301.442V300.524C1068.06 306.336 1065.92 311.23 1061.64 315.206C1057.66 319.183 1052.92 321.171 1047.42 321.171H874.929C869.424 321.171 864.531 319.183 860.249 315.206C856.273 311.23 854.285 306.336 854.285 300.524V301.442C853.98 295.63 852.603 290.583 850.157 286.301C848.016 282.325 844.805 278.654 840.523 275.289C836.241 271.925 829.972 270.09 821.714 269.784H819.879H820.338C814.833 269.172 810.246 267.031 806.576 263.36C802.906 259.384 801.071 254.643 801.071 249.137V20.6467C801.071 14.8351 803.058 9.94102 807.034 5.96461C811.01 1.9882 815.903 0 821.714 0H833.642C839.453 0 844.346 1.9882 848.322 5.96461C852.297 9.94102 854.285 14.8351 854.285 20.6467V234.914C854.285 245.619 856.579 253.419 861.167 258.313C866.06 263.207 870.8 266.419 875.388 267.948H1046.96C1051.55 266.419 1056.13 263.207 1060.72 258.313C1065.62 253.419 1068.06 245.619 1068.06 234.914V20.6467C1068.06 14.8351 1070.05 9.94102 1074.03 5.96461C1078 1.9882 1082.9 0 1088.71 0H1100.63C1106.44 0 1111.34 1.9882 1115.31 5.96461C1119.29 9.94102 1121.28 14.8351 1121.28 20.6467Z" fill="#F25749"/>
<path d="M1399.65 267.49H1398.73C1406.38 267.49 1412.34 266.266 1416.62 263.819C1421.21 261.372 1424.73 258.466 1427.17 255.102C1429.62 251.737 1431.3 248.525 1432.22 245.466C1433.14 242.102 1433.6 239.655 1433.6 238.125V189.95C1433.6 188.42 1433.14 185.973 1432.22 182.609C1431.3 179.244 1429.62 176.032 1427.17 172.974C1425.03 169.609 1421.67 166.703 1417.08 164.256C1412.49 161.809 1406.53 160.586 1399.19 160.586H1249.18C1242.14 160.586 1236.03 163.033 1230.83 167.927C1225.94 172.821 1223.18 178.785 1222.57 185.82V267.49H1399.65ZM1399.19 106.904C1405.61 106.904 1410.96 105.986 1415.25 104.151C1419.53 102.01 1422.89 99.563 1425.34 96.8101C1428.09 94.0572 1429.93 91.1514 1430.84 88.0926C1432.07 85.0339 1432.83 82.4339 1433.14 80.2928C1432.83 78.1516 1432.07 75.5517 1430.84 72.4929C1429.62 69.4341 1427.78 66.5283 1425.34 63.7754C1422.89 61.0225 1419.53 58.7284 1415.25 56.8932C1410.96 54.752 1405.46 53.6815 1398.73 53.6815H1255.6C1244.9 53.6815 1237.1 56.1285 1232.2 61.0225C1227.31 65.6106 1224.1 70.1988 1222.57 74.787V82.5868C1223.18 88.7044 1225.32 94.0572 1228.99 98.6454C1232.97 102.928 1238.02 105.681 1244.13 106.904H1399.19ZM1465.71 53.6815H1466.17C1471.98 53.6815 1476.87 55.6697 1480.85 59.646C1484.82 63.6224 1486.81 68.5165 1486.81 74.3281V86.2574C1486.81 92.069 1484.82 96.9631 1480.85 100.939C1476.87 104.916 1471.98 106.904 1466.17 106.904H1465.71C1465.1 106.904 1464.33 107.057 1463.41 107.363C1462.8 107.363 1462.19 107.363 1461.58 107.363C1461.27 107.363 1460.97 107.516 1460.66 107.822C1460.36 107.822 1459.9 107.822 1459.29 107.822C1453.47 109.351 1448.73 112.41 1445.06 116.998C1441.39 121.28 1439.41 126.48 1439.1 132.598V134.892C1439.41 140.398 1440.94 145.292 1443.69 149.574C1446.75 153.55 1450.57 156.609 1455.16 158.75H1455.62C1456.23 158.75 1456.69 158.903 1456.99 159.209C1460.05 159.821 1461.89 160.127 1462.5 160.127C1463.11 160.433 1464.03 160.586 1465.25 160.586H1466.17C1471.98 160.586 1476.87 162.574 1480.85 166.55C1484.82 170.527 1486.81 175.421 1486.81 181.232V246.843C1486.81 252.655 1484.82 257.549 1480.85 261.525C1476.87 265.501 1471.98 267.49 1466.17 267.49H1465.25C1464.64 267.49 1462.96 267.643 1460.2 267.948C1457.45 268.254 1454.39 269.325 1451.03 271.16C1447.97 272.689 1444.91 275.137 1441.85 278.501C1438.79 281.56 1436.5 285.842 1434.97 291.348V300.524C1434.97 306.336 1432.83 311.23 1428.55 315.206C1424.57 319.183 1419.68 321.171 1413.87 321.171H1190C1184.19 321.171 1179.3 319.183 1175.32 315.206C1171.34 311.23 1169.36 306.336 1169.36 300.524V74.3281C1169.36 68.5165 1171.34 63.6224 1175.32 59.646C1179.3 55.6697 1184.19 53.6815 1190 53.6815H1188.62C1194.43 53.3756 1199.63 51.9991 1204.22 49.5521C1208.2 47.411 1211.87 44.1992 1215.23 39.917C1218.6 35.3288 1220.43 29.0583 1220.74 21.1055V18.8114V19.2703C1221.35 14.0704 1223.49 9.63514 1227.16 5.96461C1231.13 1.9882 1235.87 0 1241.38 0H1413.87C1419.68 0 1424.57 1.9882 1428.55 5.96461C1432.83 9.94102 1434.97 14.8351 1434.97 20.6467V29.823C1436.5 35.6347 1438.95 40.2228 1442.31 43.5875C1445.68 46.6463 1449.04 48.9404 1452.4 50.4697C1456.38 52.305 1460.81 53.3756 1465.71 53.6815Z" fill="#F25749"/>
<path d="M1583.52 0H1594.99C1601.1 0 1606.15 1.9882 1610.12 5.96461C1614.1 9.94102 1616.09 14.988 1616.09 21.1055V300.065C1616.09 306.183 1614.1 311.23 1610.12 315.206C1606.15 319.183 1601.1 321.171 1594.99 321.171H1583.52C1577.4 321.171 1572.35 319.183 1568.38 315.206C1564.4 311.23 1562.41 306.183 1562.41 300.065V21.1055C1562.41 14.988 1564.4 9.94102 1568.38 5.96461C1572.35 1.9882 1577.4 0 1583.52 0Z" fill="#F25749"/>
<path d="M1994.04 5.96461C1998.01 9.94102 2000 14.8351 2000 20.6467V32.5759C2000 38.3876 1998.01 43.2816 1994.04 47.258C1989.75 51.5403 1984.86 53.6815 1979.36 53.6815H1902.75C1893.57 53.6815 1886.84 55.2108 1882.56 58.2696C1877.97 61.6343 1874.46 65.1518 1872.01 68.8224C1869.56 73.4105 1868.19 78.6104 1867.88 84.4221V300.524C1867.88 306.336 1865.89 311.23 1861.92 315.206C1857.94 319.183 1853.05 321.171 1847.24 321.171H1835.31C1829.5 321.171 1824.61 319.183 1820.63 315.206C1816.65 311.23 1814.67 306.336 1814.67 300.524V84.4221C1814.36 78.6104 1812.98 73.4105 1810.54 68.8224C1808.09 65.1518 1804.57 61.6343 1799.99 58.2696C1795.7 55.2108 1788.98 53.6815 1779.8 53.6815H1703.19C1697.68 53.6815 1692.79 51.5403 1688.51 47.258C1684.53 43.2816 1682.55 38.3876 1682.55 32.5759V20.6467C1682.55 14.8351 1684.53 9.94102 1688.51 5.96461C1692.49 1.9882 1697.38 0 1703.19 0H1793.56C1799.37 0 1804.27 1.9882 1808.24 5.96461C1811.91 9.63514 1814.05 14.3762 1814.67 20.1879V18.8114C1814.67 28.5995 1816.65 35.6347 1820.63 39.917C1824.61 44.811 1828.73 48.1757 1833.02 50.0109C1833.63 50.3168 1834.54 50.6227 1835.77 50.9285C1836.99 51.2344 1838.37 51.5403 1839.9 51.8462H1842.65C1844.18 51.5403 1845.55 51.2344 1846.78 50.9285C1848 50.6227 1848.92 50.3168 1849.53 50.0109C1853.81 48.1757 1857.94 44.811 1861.92 39.917C1865.89 35.6347 1867.88 28.5995 1867.88 18.8114V20.1879C1868.49 14.3762 1870.63 9.63514 1874.3 5.96461C1878.28 1.9882 1883.17 0 1888.98 0H1979.36C1985.17 0 1990.06 1.9882 1994.04 5.96461Z" fill="#F25749"/>
</svg>
